<?xml version="1.0" encoding="utf-8"?>
<!-- Generator: Adobe Illustrator 16.2.1, SVG Export Plug-In . SVG Version: 6.00 Build 0)  -->
<!DOCTYPE svg PUBLIC "-//W3C//DTD SVG 1.1//EN" "http://www.w3.org/Graphics/SVG/1.1/DTD/svg11.dtd">
<svg version="1.1" id="Layer_1" xmlns="http://www.w3.org/2000/svg" xmlns:xlink="http://www.w3.org/1999/xlink" x="0px" y="0px"
	 width="100px" height="100px" viewBox="0 0 100 100" enable-background="new 0 0 100 100" xml:space="preserve">
<g>
	<path fill="#5E5E5E" d="M50.001,2.4C23.938,2.4,2.806,23.532,2.806,49.595c0,24.514,18.762,44.426,42.67,46.745V75.76
		c-9.049-0.395-16.251-3.146-21.605-8.254c-5.354-5.113-8.031-11.701-8.031-19.786c0-7.179,1.902-13.191,5.706-18.027
		c3.804-4.835,9.527-8.175,17.171-10.013l0.811,4.38c-4.074,1.447-7.157,4.074-9.248,7.886c-2.091,3.813-3.136,9.081-3.136,15.801
		c0,7.085,1.649,12.798,4.948,17.151c3.299,4.365,7.76,6.608,13.385,6.752V32.36c0-2.312,0.469-4.299,1.406-5.962
		c0.938-1.659,2.181-3.033,3.732-4.119c1.369-0.974,3.083-1.704,5.138-2.195c2.056-0.486,3.947-0.729,5.679-0.729
		c2.739,0,5.508,0.532,8.303,1.595c2.795,1.068,5.31,2.646,7.543,4.737c2.38,2.168,4.318,4.867,5.813,8.094
		c1.496,3.231,2.244,7.229,2.244,11.993c0,4.727-0.854,8.958-2.567,12.689s-3.976,6.832-6.787,9.283
		c-2.774,2.488-5.957,4.418-9.547,5.797c-3.586,1.371-7.22,2.107-10.896,2.217v20.475c23.416-2.777,41.655-22.471,41.655-46.637
		C97.193,23.532,76.068,2.4,50.001,2.4z"/>
	<path fill="#5E5E5E" d="M69.381,63.836c3.1-4.777,4.65-10.941,4.65-18.504c0-6.801-1.162-12.146-3.486-16.036
		c-2.326-3.889-5.258-5.832-8.789-5.832c-1.73,0-3.201,0.573-4.408,1.708c-1.207,1.141-1.811,2.686-1.811,4.642V71.65
		C61.666,71.219,66.281,68.611,69.381,63.836z"/>
</g>
</svg>
